<?xml version="1.0" encoding="utf-8"?>
<svg version="1.1" viewBox="0 0 128 128" xmlns="http://www.w3.org/2000/svg">
  <rect width="128" height="128" fill="#4c7e3a"/>
  <path style="fill: #4c7e3a; stroke: rgb(0, 0, 0);" d="M 47.305 11.585 C 47.305 11.585 65.286 29.07 65.286 29.111 C 65.286 29.152 66.297 76.615 66.297 76.573 C 66.297 76.531 11.62 76.431 11.703 76.347 C 11.786 76.263 11.93 11.445 11.93 11.445"/>
  <g fill="#fff" transform="matrix(1, 0, 0, 1, -26.050632, -19.903481)">
    <path d="m91.344 43.844-12.188-12.188c-1.4453-1.4453-4.3359-2.6562-6.4062-2.6562h-35c-2.0703 0-3.75 1.6797-3.75 3.75v62.5c0 2.0703 1.6797 3.75 3.75 3.75h52.5c2.0703 0 3.75-1.6797 3.75-3.75v-45c0-2.0703-1.2109-4.9609-2.6562-6.4062zm-17.344-9.5312c0.66406 0.23438 1.3281 0.58594 1.6016 0.85938l12.227 12.227c0.27344 0.27344 0.625 0.9375 0.85938 1.6016h-14.688v-14.688zm15 59.688h-50v-60h30v16.25c0 2.0703 1.6797 3.75 3.75 3.75h16.25v40z"/>
  </g>
  <path style="fill: #4c7e3a; stroke: rgb(0, 0, 0);" d="M 71.274 31.348 C 71.274 31.348 89.255 48.833 89.255 48.874 C 89.255 48.915 90.266 96.378 90.266 96.336 C 90.266 96.294 35.589 96.194 35.672 96.11 C 35.755 96.026 35.899 31.208 35.899 31.208"/>
  <g fill="#fff" transform="matrix(1, 0, 0, 1, -2.082088, -0.139833)">
    <path d="m91.344 43.844-12.188-12.188c-1.4453-1.4453-4.3359-2.6562-6.4062-2.6562h-35c-2.0703 0-3.75 1.6797-3.75 3.75v62.5c0 2.0703 1.6797 3.75 3.75 3.75h52.5c2.0703 0 3.75-1.6797 3.75-3.75v-45c0-2.0703-1.2109-4.9609-2.6562-6.4062zm-17.344-9.5312c0.66406 0.23438 1.3281 0.58594 1.6016 0.85938l12.227 12.227c0.27344 0.27344 0.625 0.9375 0.85938 1.6016h-14.688v-14.688zm15 59.688h-50v-60h30v16.25c0 2.0703 1.6797 3.75 3.75 3.75h16.25v40z"/>
  </g>
  <path style="fill: #4c7e3a; stroke: rgb(0, 0, 0);" d="M 99.244 53.173 C 99.244 53.173 117.225 70.658 117.225 70.699 C 117.225 70.74 118.236 118.203 118.236 118.161 C 118.236 118.119 63.559 118.019 63.642 117.935 C 63.725 117.851 63.869 53.033 63.869 53.033"/>
  <g fill="#fff" transform="matrix(1, 0, 0, 1, 25.887848, 21.684534)">
    <path d="m91.344 43.844-12.188-12.188c-1.4453-1.4453-4.3359-2.6562-6.4062-2.6562h-35c-2.0703 0-3.75 1.6797-3.75 3.75v62.5c0 2.0703 1.6797 3.75 3.75 3.75h52.5c2.0703 0 3.75-1.6797 3.75-3.75v-45c0-2.0703-1.2109-4.9609-2.6562-6.4062zm-17.344-9.5312c0.66406 0.23438 1.3281 0.58594 1.6016 0.85938l12.227 12.227c0.27344 0.27344 0.625 0.9375 0.85938 1.6016h-14.688v-14.688zm15 59.688h-50v-60h30v16.25c0 2.0703 1.6797 3.75 3.75 3.75h16.25v40z"/>
  </g>
</svg>